<svg xmlns="http://www.w3.org/2000/svg" width="64" height="64" viewBox="0 0 64 64"><g fill="none" fill-rule="evenodd" transform="translate(0 19)"><path fill="#CB9963" d="M62.6805195,18.9821199 C62.6805195,28.6239424 48.928,28.6813046 31.9638442,28.6813046 C14.9988571,28.6813046 1.24633766,28.6239424 1.24633766,18.9821199 C1.24633766,9.34029736 14.9988571,1.2472518 31.9638442,1.2472518 C48.928,1.2472518 62.6805195,9.34029736 62.6805195,18.9821199"/><path fill="#010202" d="M54.4571013,6.9697458 C56.5242182,9.35068905 57.6936727,12.0217682 57.6936727,14.8258609 C57.6936727,24.4668521 43.9411532,24.5242142 26.9769974,24.5242142 C16.6430753,24.5242142 7.50852987,24.4992742 1.94052987,22.3028873 C4.9211013,28.6343341 17.227387,28.6808889 31.9640104,28.6808889 C48.9281662,28.6808889 62.6806857,28.6235268 62.6806857,18.9825356 C62.6806857,14.3902414 59.5571532,10.1520959 54.4571013,6.9697458" opacity=".3"/><path fill="#2E2E30" d="M31.9635117,27.4340528 C13.6270961,27.4340528 2.49358961,26.8645883 2.49358961,18.9818705 C2.49358961,13.8417266 6.96195325,9.16380496 13.794161,6.11446843 C12.7294338,7.75136691 11.9473039,9.86960831 12.0861091,12.5348681 C12.1210182,13.2007674 12.6712519,13.7170264 13.3303688,13.7170264 C13.3519792,13.7170264 13.3744208,13.7170264 13.3960312,13.7153637 C14.0834078,13.6796163 14.6120312,13.0926938 14.5762909,12.4051799 C14.3028364,7.15363709 18.6963948,4.55072742 19.5782649,4.08185452 C22.9444987,3.18068745 26.6365506,2.62784972 30.4989922,2.5156195 C28.7942649,4.36118305 27.0529662,7.46123102 27.0621091,12.4716867 C27.0629403,13.160032 27.6206545,13.7170264 28.3088623,13.7170264 L28.3105247,13.7170264 C28.9995636,13.716195 29.5564468,13.1567066 29.5556156,12.4683613 C29.5439792,5.47517186 33.4388364,3.05598721 34.4162909,2.55884892 C39.0342649,2.78330935 43.3887584,3.63127098 47.1980052,4.95143086 C45.6686545,6.61992006 44.1451221,8.9626219 44.3313039,12.5348681 C44.366213,13.2007674 44.9164468,13.7170264 45.5755636,13.7170264 C45.597174,13.7170264 45.6196156,13.7170264 45.641226,13.7153637 C46.3286026,13.6796163 46.857226,13.0935252 46.8214857,12.4051799 C46.6569143,9.25608313 48.1746286,7.44294165 49.7206026,5.93157474 C56.7855377,8.97592326 61.4334338,13.7386411 61.4334338,18.9818705 C61.4334338,26.8645883 50.2999273,27.4340528 31.9635117,27.4340528 M34.2342649,0.0532054357 C34.2168104,0.0523741007 34.1993558,0.0507114309 34.1819013,0.0507114309 C33.4479792,0.0207833733 32.7099013,0 31.9635117,0 C14.3385766,0 8.31168831e-05,8.51536371 8.31168831e-05,18.9818705 C8.31168831e-05,29.9280576 14.8123429,29.9280576 31.9635117,29.9280576 C49.1146805,29.9280576 63.9269403,29.9280576 63.9269403,18.9818705 C63.9269403,8.96927258 50.8019532,0.748201439 34.2342649,0.0532054357"/></g></svg>